<svg xmlns="http://www.w3.org/2000/svg" xmlns:xlink="http://www.w3.org/1999/xlink" width="48" height="48" id="Bug">
  <defs>
    <linearGradient xlink:href="#a" id="b" x1="992.183" x2="1019.298" y1="516.081" y2="545.959" gradientTransform="translate(-1200.705 973.675)scale(1.53785)" gradientUnits="userSpaceOnUse"></linearGradient>
    <linearGradient id="a">
      <stop offset="0" stop-color="#8b5cf6" class="stopColorff1679 svgShape"></stop>
      <stop offset="1" stop-color="#550bff" class="stopColorff770b svgShape"></stop>
    </linearGradient>
  </defs>
  <g transform="translate(-322 -1766.695)" fill="#000000" class="color000000 svgShape">
    <rect width="48" height="48" x="322" y="1766.695" fill="url(#b)" rx="10.144" ry="10.144"></rect>
    <path fill="#fcfafa" d="M340.263 1775.683a.544.544 0 0 0-.343.656.544.544 0 0 0 .656.344c1.298 0 2.438.679 3.094 1.688a5.339 5.339 0 0 0-2.907 4.75c.001.402.066.798.157 1.187.067.285.42.461.687.344a10.56 10.56 0 0 1 4.531-1.031c1.616 0 3.154.377 4.532 1.031a.523.523 0 0 0 .687-.344c.092-.39.154-.787.156-1.187a5.339 5.339 0 0 0-2.906-4.75 3.692 3.692 0 0 1 3.094-1.688.523.523 0 0 0 .507-.5.52.52 0 0 0-.507-.5 4.684 4.684 0 0 0-4.031 2.313 5.406 5.406 0 0 0-1.532-.219c-.53 0-1.046.075-1.53.219a4.684 4.684 0 0 0-4.032-2.313h-.312zm16.97 8.406c-.022.01-.043.02-.063.032a.507.507 0 0 0-.344.28 11.892 11.892 0 0 1-3.219 3.938c-1.747-2.2-4.44-3.625-7.469-3.625-3.028 0-5.721 1.425-7.468 3.625a11.944 11.944 0 0 1-3.188-3.875.523.523 0 0 0-.5-.281c-.335.028-.566.454-.406.75.854 1.65 2.083 3.054 3.531 4.188a9.405 9.405 0 0 0-1.469 4.593H333.39a.535.535 0 0 0-.375.625c.065.262.363.44.625.375h3a9.393 9.393 0 0 0 2.093 5.438 12.963 12.963 0 0 0-4.156 4.719.53.53 0 0 0 .22.684.53.53 0 0 0 .686-.216c.923-1.78 2.286-3.265 3.938-4.375a9.548 9.548 0 0 0 6.719 2.75 9.549 9.549 0 0 0 6.75-2.781 11.938 11.938 0 0 1 3.937 4.469c.063.14.194.247.344.281.372.092.741-.38.562-.719a12.943 12.943 0 0 0-4.187-4.781 9.414 9.414 0 0 0 2.094-5.469h3a.523.523 0 0 0 .507-.5.52.52 0 0 0-.507-.5h-3a9.405 9.405 0 0 0-1.47-4.593c1.438-1.128 2.682-2.554 3.563-4.282.191-.322-.129-.802-.5-.75z" color="#000" font-family="Sans" font-weight="400" overflow="visible" style="line-height:normal;-inkscape-font-specification:Sans;text-indent:0;text-align:start;text-decoration-line:none;text-transform:none;block-progression:tb;marker:none" class="colorffffff svgShape"></path>
  </g>
</svg>
